#!OML:ASF H:\ManfredETheater\Project 1\Capture day 1\Session 1\subject.ASF
:FULLY-SPECIFIED
:DEGREES
233
root -1.87191 17.257 41.2264 4.1902 17.7807 2.38107
lowerback 11.0735 -1.60508 -0.647806
upperback -1.09459 -2.13791 1.18549
thorax -7.30937 -0.990417 1.98373
lowerneck -15.5049 -8.83771 -9.89545
upperneck 5.92805 -10.8567 9.59893
head 5.36022 -4.9533 3.53472
rclavicle 1.48592e-014 3.97569e-015
rhumerus -37.1066 -7.15916 -80.3449
rradius 41.1961
rwrist -5.72275
rhand -22.619 -12.6465
rfingers 7.12502
rthumb 3.81101 -42.5922
lclavicle 1.48592e-014 3.97569e-015
lhumerus -42.2834 10.4957 79.399
lradius 55.2374
lwrist -7.10967
lhand -15.0869 4.54938
lfingers 7.12502
lthumb 11.0809 34.2369
rfemur -11.5111 9.68306 20.309
rtibia 30.5522
rfoot -16.2186 -2.96325
rtoes 11.9319
lfemur -22.6867 -3.91256 -13.8914
ltibia 60.7204
lfoot -9.12425 2.43768
ltoes -7.51215
234
root -1.87415 17.2548 41.2938 4.2072 17.2668 2.28995
lowerback 10.9023 -1.61251 -0.554318
upperback -1.18957 -2.13388 1.2051
thorax -7.31601 -0.99157 1.94723
lowerneck -15.7239 -8.70843 -9.75374
upperneck 6.11508 -10.6804 9.40061
head 5.41676 -4.8687 3.46249
rclavicle 1.30204e-014 7.95139e-016
rhumerus -36.9974 -7.16229 -80.3847
rradius 41.2013
rwrist -5.68311
rhand -22.5543 -12.5822
rfingers 7.12502
rthumb 3.8735 -42.5267
lclavicle 1.30204e-014 7.95139e-016
lhumerus -42.1903 10.4329 79.4993
lradius 55.0587
lwrist -7.19887
lhand -14.917 4.53639
lfingers 7.12502
lthumb 11.2448 34.215
rfemur -11.2818 9.83621 20.4637
rtibia 30.3838
rfoot -16.3147 -2.56135
rtoes 12.234
lfemur -23.3807 -3.68164 -14.3952
ltibia 60.2616
lfoot -9.72762 2.46857
ltoes -7.69497
235
root -1.87608 17.253 41.3609 4.24452 16.7631 2.20242
lowerback 10.7236 -1.61963 -0.457218
upperback -1.28176 -2.12924 1.22464
thorax -7.31547 -0.992715 1.90818
lowerneck -15.9608 -8.58101 -9.60477
upperneck 6.29336 -10.505 9.19448
head 5.47333 -4.78475 3.38622
rclavicle 2.82274e-014 1.59028e-014
rhumerus -36.8942 -7.1911 -80.414
rradius 41.2144
rwrist -5.64258
rhand -22.4818 -12.5114
rfingers 7.12502
rthumb 3.94356 -42.4547
lclavicle 2.82274e-014 1.59028e-014
lhumerus -42.1032 10.3601 79.5932
lradius 54.8866
lwrist -7.24705
lhand -14.7641 4.51265
lfingers 7.12502
lthumb 11.3923 34.1832
rfemur -11.0688 9.96199 20.6035
rtibia 30.2074
rfoot -16.4055 -2.13163
rtoes 12.5493
lfemur -24.0716 -3.47795 -14.8988
ltibia 59.6717
lfoot -10.3311 2.4812
ltoes -7.88493
236
root -1.87751 17.2514 41.4277 4.29588 16.2701 2.11086
lowerback 10.5318 -1.62675 -0.34997
upperback -1.36406 -2.1234 1.24686
thorax -7.29704 -0.993921 1.86531
lowerneck -16.2183 -8.45669 -9.45081
upperneck 6.45854 -10.3317 8.984
head 5.52945 -4.70186 3.30718
rclavicle -3.27995e-015 -1.27222e-014
rhumerus -36.7868 -7.24552 -80.4314
rradius 41.2338
rwrist -5.59575
rhand -22.3952 -12.454
rfingers 7.12502
rthumb 4.02712 -42.3957
lclavicle -3.27995e-015 -1.27222e-014
lhumerus -41.9801 10.3094 79.6755
lradius 54.6562
lwrist -7.28002
lhand -14.6133 4.4521
lfingers 7.12502
lthumb 11.5377 34.1145
rfemur -10.8675 10.0585 20.7366
rtibia 30.0229
rfoot -16.4915 -1.66938
rtoes 12.8756
lfemur -24.7532 -3.30237 -15.3902
ltibia 58.9506
lfoot -10.9359 2.46521
ltoes -8.11317
237
root -1.87833 17.2502 41.4944 4.36011 15.7867 2.01391
lowerback 10.3287 -1.63343 -0.230435
upperback -1.43999 -2.11563 1.27186
thorax -7.26568 -0.994816 1.81758
lowerneck -16.4395 -8.3281 -9.3201
upperneck 6.56487 -10.1516 8.80895
head 5.5647 -4.61574 3.24564
rclavicle 6.41081e-015 3.18055e-015
rhumerus -36.6822 -7.3196 -80.4374
rradius 41.2552
rwrist -5.55327
rhand -22.3068 -12.4005
rfingers 7.12502
rthumb 4.11248 -42.3405
lclavicle 6.41081e-015 3.18055e-015
lhumerus -41.8339 10.2835 79.7424
lradius 54.3851
lwrist -7.32148
lhand -14.416 4.41197
lfingers 7.12502
lthumb 11.7279 34.0637
rfemur -10.6731 10.1288 20.8659
rtibia 29.8243
rfoot -16.5689 -1.18228
rtoes 13.2074
lfemur -25.4168 -3.15688 -15.8643
ltibia 58.0969
lfoot -11.5294 2.41587
ltoes -8.39513
238
root -1.87865 17.2494 41.5612 4.44079 15.3066 1.92379
lowerback 10.1196 -1.63715 -0.113808
upperback -1.51377 -2.10478 1.29666
thorax -7.22845 -0.994172 1.77055
lowerneck -16.6634 -8.20142 -9.19134
upperneck 6.65865 -9.97285 8.63352
head 5.59718 -4.53065 3.18426
rclavicle 2.78299e-014 1.59028e-015
rhumerus -36.5866 -7.40468 -80.4357
rradius 41.2731
rwrist -5.53489
rhand -22.2491 -12.3404
rfingers 7.12502
rthumb 4.16819 -42.2793
lclavicle 2.78299e-014 1.59028e-015
lhumerus -41.6746 10.2844 79.7909
lradius 54.075
lwrist -7.37775
lhand -14.1754 4.37074
lfingers 7.12502
lthumb 11.96 34.0091
rfemur -10.4859 10.1833 20.9796
rtibia 29.6088
rfoot -16.6341 -0.681975
rtoes 13.5369
lfemur -26.0597 -3.0388 -16.3304
ltibia 57.1121
lfoot -12.1041 2.33427
ltoes -8.71872
239
root -1.87842 17.2492 41.6283 4.52589 14.8327 1.82367
lowerback 9.9098 -1.6393 0.0163975
upperback -1.5847 -2.09034 1.32552
thorax -7.1881 -0.992272 1.71954
lowerneck -16.8731 -8.07454 -9.07431
upperneck 6.72797 -9.79284 8.47092
head 5.62145 -4.44522 3.12967
rclavicle -3.47873e-015 -8.74653e-015
rhumerus -36.5031 -7.50132 -80.4224
rradius 41.2913
rwrist -5.52106
rhand -22.1847 -12.3074
rfingers 7.12502
rthumb 4.23042 -42.2452
lclavicle -3.47873e-015 -8.74653e-015
lhumerus -41.5104 10.307 79.824
lradius 53.7246
lwrist -7.44923
lhand -13.9036 4.3206
lfingers 7.12502
lthumb 12.222 33.9435
rfemur -10.292 10.2267 21.0993
rtibia 29.3705
rfoot -16.6881 -0.17706
rtoes 13.8638
lfemur -26.6685 -2.95448 -16.7655
ltibia 56.0004
lfoot -12.6501 2.22532
ltoes -9.0597
240
root -1.87784 17.2497 41.6957 4.62208 14.3627 1.73108
lowerback 9.7028 -1.63853 0.140481
upperback -1.65842 -2.07333 1.35332
thorax -7.1521 -0.988835 1.6707
lowerneck -17.0654 -7.94744 -8.96729
upperneck 6.77993 -9.61237 8.31863
head 5.639 -4.35993 3.08068
rclavicle 6.90777e-015 -7.95139e-016
rhumerus -36.4372 -7.60196 -80.4014
rradius 41.2992
rwrist -5.52561
rhand -22.1494 -12.269
rfingers 7.12502
rthumb 4.26447 -42.2061
lclavicle 6.90777e-015 -7.95139e-016
lhumerus -41.3764 10.3406 79.8422
lradius 53.3845
lwrist -7.52718
lhand -13.604 4.28928
lfingers 7.12502
lthumb 12.5109 33.8947
rfemur -10.0914 10.2694 21.2071
rtibia 29.105
rfoot -16.7256 0.318926
rtoes 14.202
lfemur -27.2441 -2.90685 -17.184
ltibia 54.7673
lfoot -13.157 2.09472
ltoes -9.34189
